<?xml version="1.0" encoding="UTF-8"?>
<svg id="Layer_1" data-name="Layer 1" xmlns="http://www.w3.org/2000/svg" xmlns:xlink="http://www.w3.org/1999/xlink" viewBox="0 0 338.25 400">
  <defs>
    <style>
      .cls-1 {
        fill: url(#linear-gradient-2);
      }

      .cls-2 {
        fill: url(#linear-gradient);
      }
    </style>
    <linearGradient id="linear-gradient" x1="70.48" y1="-117.69" x2="315.37" y2="192.51" gradientUnits="userSpaceOnUse">
      <stop offset="0" stop-color="#05c3fb"/>
      <stop offset="1" stop-color="#6c5ffc"/>
    </linearGradient>
    <linearGradient id="linear-gradient-2" x1="-117" y1="30.31" x2="127.9" y2="340.51" xlink:href="#linear-gradient"/>
  </defs>
  <path class="cls-2" d="M273.54,5.78l-105.54,162.15c-1.99,3.48-2.02,7.76-.07,11.26l75.57,136.03c2.02,3.64,5.86,5.9,10.03,5.9h43.44c8.75,0,14.28-9.4,10.03-17.05l-69.38-124.88c-1.95-3.51-1.92-7.78,.07-11.26L336.72,17.17c4.37-7.65-1.15-17.17-9.96-17.17h-43.26c-4.12,0-7.92,2.21-9.96,5.78Z"/>
  <path class="cls-1" d="M64.71,394.22l105.54-162.15c1.99-3.48,2.02-7.76,.07-11.26L94.75,84.78c-2.02-3.64-5.86-5.9-10.03-5.9H41.28c-8.75,0-14.28,9.4-10.03,17.05l69.38,124.88c1.95,3.51,1.92,7.78-.07,11.26L1.53,382.83c-4.37,7.65,1.15,17.17,9.96,17.17H54.75c4.12,0,7.92-2.21,9.96-5.78Z"/>
</svg>